<?xml version="1.0" encoding="UTF-8"?><svg id="Layer_1" xmlns="http://www.w3.org/2000/svg" viewBox="0 0 64 64"><defs><style>.cls-1{stroke-width:.28px;}.cls-1,.cls-2{fill:#d3f85a;stroke:#d3f85a;stroke-linecap:round;stroke-linejoin:round;}.cls-3{fill:#2b3a5b;}.cls-2{stroke-width:.28px;}</style></defs><circle class="cls-3" cx="32" cy="32" r="32"/><g><path class="cls-1" d="M51.55,20.19c-.08-.13-.21-.22-.36-.25s-.31,0-.43,.09l-.03,.02h-.02l-6.84,4.54c-.24,.16-.31,.47-.17,.72,1.08,1.88,1.68,4.03,1.76,6.21,.24,6.78-4.62,12.71-11.3,13.79-.27,.04-.46,.28-.46,.56l.29,8.32c0,.15,.07,.29,.19,.39,.1,.09,.22,.13,.35,.13h.06c4.21-.49,8.21-2.13,11.55-4.77,3.43-2.7,6-6.32,7.43-10.47,2.22-6.42,1.48-13.45-2.04-19.28h.01Zm2.15,13.45l-7.17-.6c.04-.51,.05-1.03,.03-1.56,0-.21-.02-.44-.04-.65l7.18-.51c.09,1.1,.09,2.21,0,3.32Zm-1.46,6.35l-6.67-2.68c.27-.69,.49-1.39,.65-2.12l7.01,1.63c-.18,.77-.39,1.53-.65,2.28-.11,.3-.21,.6-.33,.89h0Zm-8.85,1.08c.46-.58,.88-1.19,1.25-1.84l6.21,3.63c-.56,.96-1.19,1.88-1.88,2.74l-5.57-4.53Zm8.86-17.07c.41,1.03,.74,2.09,.98,3.16l-7.03,1.56c-.16-.72-.39-1.43-.66-2.11l6.7-2.6h0Zm-16.02,21.93c.72-.22,1.42-.49,2.08-.81l3.08,6.49c-1,.48-2.03,.88-3.1,1.21l-2.07-6.89h0Zm7.94,4.08l-3.99-5.97c.62-.42,1.21-.89,1.75-1.4l4.85,5.3c-.81,.76-1.68,1.44-2.6,2.07Z"/><path class="cls-1" d="M13.34,19.92l7.4,3.9c.08,.04,.16,.06,.25,.06,.16,0,.32-.07,.43-.21,2.46-3.13,6.14-5,10.12-5.15,3.85-.14,7.59,1.39,10.25,4.2,.18,.19,.47,.22,.69,.08l6.97-4.62c.13-.09,.21-.22,.24-.37,.02-.15-.02-.31-.12-.43-2.65-3.2-6.14-5.61-10.09-6.98-9.72-3.36-20.55,.23-26.33,8.72-.09,.13-.11,.29-.08,.44,.04,.15,.14,.28,.27,.35Zm25.78-8.49c3.57,1.23,6.74,3.37,9.22,6.19l-6.09,4.03c-2.85-2.82-6.74-4.35-10.76-4.2-4.14,.15-7.99,2.03-10.64,5.2l-6.47-3.4c5.59-7.74,15.67-10.95,24.73-7.81Z"/><path class="cls-1" d="M30.94,45.45c-6.82-.54-12.15-6.11-12.4-12.96-.07-2.11,.33-4.14,1.19-6.04,.12-.26,.01-.57-.24-.7l-7.33-3.86c-.13-.07-.29-.08-.42-.04s-.26,.15-.32,.28c-.38,.79-.71,1.61-1,2.43-1.98,5.76-1.61,11.96,1.06,17.44,2.67,5.49,7.31,9.61,13.07,11.6,2.14,.74,4.37,1.16,6.62,1.24h.02c.14,0,.28-.06,.39-.16,.11-.11,.16-.25,.16-.4l-.29-8.31c0-.28-.22-.5-.5-.52h0Z"/><path class="cls-2" d="M42.68,31.65c-.21-5.89-5.16-10.5-11.04-10.3-5.88,.21-10.5,5.17-10.29,11.05,.21,5.76,4.95,10.3,10.66,10.3h.38c5.88-.21,10.5-5.17,10.29-11.05h0Zm-10.33,10.08h-.35c-5.19,0-9.51-4.13-9.7-9.37-.19-5.35,4-9.86,9.36-10.05,2.59-.09,5.06,.83,6.96,2.6,1.9,1.77,2.99,4.17,3.09,6.76,.19,5.35-4,9.86-9.36,10.05h0Z"/></g></svg>