<?xml version="1.0" encoding="UTF-8"?><svg id="Layer_1" xmlns="http://www.w3.org/2000/svg" viewBox="0 0 128 128"><defs><style>.cls-1{stroke-width:.57px;}.cls-1,.cls-2{fill:#d3f85a;stroke:#d3f85a;stroke-linecap:round;stroke-linejoin:round;}.cls-2{stroke-width:.57px;}.cls-3{fill:#2b3a5b;}</style></defs><circle class="cls-3" cx="64" cy="64" r="64"/><g><path class="cls-1" d="M103.1,40.38c-.16-.26-.41-.44-.71-.5s-.61,0-.86,.19l-.06,.04-.04,.03-13.67,9.05c-.47,.31-.63,.94-.34,1.44,2.16,3.77,3.37,8.06,3.53,12.42,.49,13.56-9.25,25.42-22.61,27.58-.54,.09-.93,.56-.91,1.11l.59,16.64c0,.3,.14,.59,.37,.79,.2,.17,.44,.26,.7,.26h.13c8.42-.97,16.41-4.27,23.09-9.53,6.87-5.41,12-12.65,14.86-20.94,4.44-12.85,2.95-26.91-4.08-38.55h.03Zm4.3,26.91l-14.35-1.2c.07-1.03,.1-2.07,.06-3.13-.01-.43-.04-.87-.07-1.3l14.36-1.01c.17,2.2,.17,4.42,0,6.64Zm-2.93,12.7l-13.35-5.35c.54-1.37,.97-2.78,1.3-4.24l14.02,3.25c-.36,1.54-.79,3.05-1.3,4.57-.21,.6-.43,1.2-.66,1.78h-.01Zm-17.7,2.16c.93-1.16,1.76-2.38,2.5-3.68l12.42,7.27c-1.11,1.93-2.38,3.75-3.77,5.48l-11.15-9.06Zm17.71-34.14c.81,2.07,1.47,4.18,1.96,6.32l-14.06,3.11c-.33-1.44-.77-2.85-1.31-4.23l13.4-5.21h.01Zm-32.03,43.86c1.44-.44,2.84-.98,4.17-1.63l6.17,12.97c-2,.96-4.07,1.77-6.21,2.43l-4.14-13.77h.01Zm15.89,8.15l-7.98-11.93c1.24-.84,2.41-1.78,3.5-2.8l9.69,10.59c-1.63,1.51-3.37,2.88-5.21,4.14Z"/><path class="cls-1" d="M26.67,39.84l14.8,7.81c.16,.09,.33,.13,.5,.13,.33,0,.64-.14,.86-.41,4.92-6.25,12.29-10.01,20.24-10.29,7.71-.27,15.19,2.78,20.5,8.39,.36,.39,.94,.44,1.38,.16l13.95-9.24c.26-.17,.43-.44,.47-.74,.04-.3-.04-.61-.24-.86-5.31-6.39-12.29-11.22-20.18-13.96-19.44-6.72-41.09,.46-52.66,17.44-.17,.26-.23,.57-.16,.87,.07,.3,.27,.56,.54,.7Zm51.56-16.97c7.14,2.47,13.49,6.74,18.44,12.38l-12.18,8.06c-5.7-5.64-13.49-8.69-21.51-8.41-8.28,.3-15.99,4.07-21.28,10.41l-12.93-6.81c11.18-15.47,31.33-21.9,49.46-15.63Z"/><path class="cls-1" d="M61.89,90.9c-13.65-1.07-24.31-12.22-24.79-25.92-.14-4.21,.66-8.28,2.38-12.09,.24-.53,.03-1.14-.49-1.4l-14.66-7.72c-.26-.14-.57-.16-.84-.07s-.51,.3-.64,.56c-.76,1.58-1.43,3.23-2,4.85-3.97,11.52-3.23,23.92,2.11,34.88,5.34,10.98,14.62,19.21,26.15,23.19,4.28,1.48,8.75,2.31,13.25,2.48h.04c.29,0,.56-.11,.77-.31,.21-.21,.33-.5,.31-.8l-.59-16.63c-.01-.56-.44-1-1-1.04h-.01Z"/><path class="cls-2" d="M85.36,63.3c-.41-11.77-10.32-21.01-22.09-20.59-11.76,.41-20.99,10.33-20.58,22.1,.41,11.52,9.89,20.61,21.32,20.61h.77c11.76-.41,20.99-10.33,20.58-22.1h0Zm-20.65,20.15h-.7c-10.39,0-19.03-8.27-19.4-18.74-.38-10.7,8.01-19.72,18.71-20.09,5.19-.19,10.12,1.67,13.92,5.2,3.79,3.53,5.99,8.34,6.17,13.52,.38,10.7-8.01,19.72-18.71,20.09h0Z"/></g></svg>