<?xml version="1.0" encoding="UTF-8"?><svg id="Layer_1" xmlns="http://www.w3.org/2000/svg" viewBox="0 0 1200 1200"><defs><style>.cls-1{stroke-width:5.3px;}.cls-1,.cls-2{fill:#d3f85a;stroke:#d3f85a;stroke-linecap:round;stroke-linejoin:round;}.cls-3{fill:#2b3a5b;}.cls-2{stroke-width:5.3px;}</style></defs><circle class="cls-3" cx="600" cy="600" r="600"/><g><path class="cls-2" d="M966.53,378.61c-1.47-2.41-3.88-4.15-6.69-4.68-2.81-.54-5.75,0-8.03,1.74l-.54,.4-.4,.27-128.2,84.84c-4.42,2.94-5.89,8.83-3.21,13.52,20.21,35.33,31.58,75.61,33.05,116.42,4.55,127.13-86.71,238.33-211.96,258.53-5.09,.8-8.7,5.22-8.56,10.44l5.49,156.03c0,2.81,1.34,5.49,3.48,7.36,1.87,1.61,4.15,2.41,6.56,2.41h1.2c78.95-9.1,153.89-40.01,216.51-89.39,64.37-50.72,112.54-118.56,139.3-196.31,41.62-120.43,27.7-252.24-38.27-361.44l.27-.13Zm40.28,252.38l-134.49-11.24c.67-9.63,.94-19.4,.54-29.31-.13-4.01-.4-8.16-.67-12.18l134.62-9.5c1.61,20.61,1.61,41.48,0,62.22Zm-27.43,119.1l-125.12-50.18c5.09-12.85,9.1-26.09,12.18-39.74l131.41,30.51c-3.35,14.45-7.36,28.64-12.18,42.82-2.01,5.62-4.01,11.24-6.16,16.73l-.13-.13Zm-165.93,20.34c8.7-10.84,16.46-22.35,23.42-34.52l116.42,68.11c-10.44,18.07-22.35,35.19-35.33,51.39l-104.51-84.97Zm166.07-320.09c7.63,19.4,13.78,39.21,18.33,59.28l-131.81,29.17c-3.08-13.52-7.23-26.76-12.31-39.61l125.65-48.84h.13Zm-300.28,411.22c13.52-4.15,26.63-9.23,39.07-15.26l57.81,121.64c-18.73,8.97-38.14,16.59-58.21,22.75l-38.81-129.13h.13Zm148.94,76.41l-74.8-111.87c11.64-7.9,22.61-16.73,32.78-26.23l90.86,99.29c-15.26,14.18-31.58,27.03-48.84,38.81Z"/><path class="cls-2" d="M250.07,373.52l138.77,73.2c1.47,.8,3.08,1.2,4.68,1.2,3.08,0,6.02-1.34,8.03-3.88,46.17-58.61,115.22-93.81,189.75-96.48,72.26-2.54,142.38,26.09,192.16,78.68,3.35,3.61,8.83,4.15,12.98,1.47l130.74-86.58c2.41-1.61,4.01-4.15,4.42-6.96,.4-2.81-.4-5.75-2.27-8.03-49.78-59.95-115.22-105.18-189.22-130.87-182.26-63.03-385.26,4.28-493.65,163.52-1.61,2.41-2.14,5.35-1.47,8.16,.67,2.81,2.54,5.22,5.09,6.56Zm483.34-159.11c66.91,23.15,126.46,63.16,172.89,116.02l-114.15,75.61c-53.39-52.86-126.46-81.49-201.66-78.82-77.61,2.81-149.87,38.14-199.52,97.55l-121.24-63.83c104.78-145.06,293.73-205.27,463.67-146.53Z"/><path class="cls-2" d="M580.2,852.18c-127.93-10.04-227.89-114.55-232.44-243.01-1.34-39.48,6.16-77.61,22.35-113.34,2.27-4.95,.27-10.71-4.55-13.11l-137.43-72.39c-2.41-1.34-5.35-1.47-7.9-.67-2.54,.8-4.82,2.81-6.02,5.22-7.09,14.85-13.38,30.24-18.73,45.5-37.2,107.99-30.24,224.28,19.8,327.05,50.05,102.9,137.03,180.12,245.15,217.45,40.14,13.92,82.03,21.68,124.18,23.28h.4c2.68,0,5.22-1.07,7.23-2.94,2.01-2.01,3.08-4.68,2.94-7.49l-5.49-155.9c-.13-5.22-4.15-9.37-9.37-9.77l-.13,.13Z"/><path class="cls-1" d="M800.29,593.46c-3.87-110.36-96.73-196.94-207.09-193.06-110.23,3.87-196.8,96.87-192.93,207.23,3.87,107.96,92.72,193.2,199.88,193.2h7.21c110.23-3.87,196.8-96.87,192.93-207.23v-.13Zm-193.6,189.05h-6.55c-97.4,0-178.37-77.49-181.84-175.69-3.61-100.34,75.09-184.91,175.43-188.39,48.63-1.74,94.86,15.63,130.53,48.77,35.54,33.13,56.12,78.16,57.85,126.79,3.61,100.34-75.09,184.91-175.43,188.39v.13Z"/></g></svg>