<?xml version="1.0" encoding="UTF-8"?><svg id="Layer_1" xmlns="http://www.w3.org/2000/svg" viewBox="0 0 64 64"><defs><style>.cls-1{fill:#d0da55;}</style></defs><path class="cls-1" d="M59.38,15.45c-.11-.18-.29-.31-.5-.35-.21-.04-.43,0-.6,.13l-.04,.03-.03,.02-9.58,6.34c-.33,.22-.44,.66-.24,1.01,1.51,2.64,2.36,5.65,2.47,8.7,.34,9.5-6.48,17.81-15.84,19.32-.38,.06-.65,.39-.64,.78l.41,11.66c0,.21,.1,.41,.26,.55,.14,.12,.31,.18,.49,.18,.03,0,.06,0,.09,0,5.9-.68,11.5-2.99,16.18-6.68,4.81-3.79,8.41-8.86,10.41-14.67,3.11-9,2.07-18.85-2.86-27.01Zm3.01,18.86l-10.05-.84c.05-.72,.07-1.45,.04-2.19-.01-.3-.03-.61-.05-.91l10.06-.71c.12,1.54,.12,3.1,0,4.65Zm-2.05,8.9l-9.35-3.75c.38-.96,.68-1.95,.91-2.97l9.82,2.28c-.25,1.08-.55,2.14-.91,3.2-.15,.42-.3,.84-.46,1.25Zm-12.4,1.52c.65-.81,1.23-1.67,1.75-2.58l8.7,5.09c-.78,1.35-1.67,2.63-2.64,3.84l-7.81-6.35Zm12.41-23.92c.57,1.45,1.03,2.93,1.37,4.43l-9.85,2.18c-.23-1.01-.54-2-.92-2.96l9.39-3.65Zm-22.44,30.73c1.01-.31,1.99-.69,2.92-1.14l4.32,9.09c-1.4,.67-2.85,1.24-4.35,1.7l-2.9-9.65Zm11.13,5.71l-5.59-8.36c.87-.59,1.69-1.25,2.45-1.96l6.79,7.42c-1.14,1.06-2.36,2.02-3.65,2.9Z"/><path class="cls-1" d="M5.84,15.07l10.37,5.47c.11,.06,.23,.09,.35,.09,.23,0,.45-.1,.6-.29,3.45-4.38,8.61-7.01,14.18-7.21,5.4-.19,10.64,1.95,14.36,5.88,.25,.27,.66,.31,.97,.11l9.77-6.47c.18-.12,.3-.31,.33-.52,.03-.21-.03-.43-.17-.6-3.72-4.48-8.61-7.86-14.14-9.78C28.84-2.96,13.67,2.07,5.57,13.97c-.12,.18-.16,.4-.11,.61,.05,.21,.19,.39,.38,.49ZM41.96,3.18c5,1.73,9.45,4.72,12.92,8.67l-8.53,5.65c-3.99-3.95-9.45-6.09-15.07-5.89-5.8,.21-11.2,2.85-14.91,7.29L7.31,14.13C15.14,3.29,29.26-1.21,41.96,3.18Z"/><path class="cls-1" d="M30.51,50.84c-9.56-.75-17.03-8.56-17.37-18.16-.1-2.95,.46-5.8,1.67-8.47,.17-.37,.02-.8-.34-.98l-10.27-5.41c-.18-.1-.4-.11-.59-.05s-.36,.21-.45,.39c-.53,1.11-1,2.26-1.4,3.4C-1.02,29.63-.5,38.32,3.24,46c3.74,7.69,10.24,13.46,18.32,16.25,3,1.04,6.13,1.62,9.28,1.74h.03c.2,0,.39-.08,.54-.22,.15-.15,.23-.35,.22-.56l-.41-11.65c-.01-.39-.31-.7-.7-.73Z"/><path class="cls-1" d="M46.98,31.68c-.29-8.26-7.24-14.74-15.5-14.45-8.25,.29-14.73,7.25-14.44,15.51,.29,8.08,6.94,14.46,14.96,14.46,.18,0,.36,0,.54,0,8.25-.29,14.73-7.25,14.44-15.51Zm-14.49,14.15c-.16,0-.33,0-.49,0-7.29,0-13.35-5.8-13.61-13.15-.27-7.51,5.62-13.84,13.13-14.1,3.64-.13,7.1,1.17,9.77,3.65,2.66,2.48,4.2,5.85,4.33,9.49,.27,7.51-5.62,13.84-13.13,14.1Z"/></svg>