<?xml version="1.0" encoding="UTF-8"?><svg id="Layer_1" xmlns="http://www.w3.org/2000/svg" viewBox="0 0 128 128"><defs><style>.cls-1{fill:#d0da55;}</style></defs><path class="cls-1" d="M118.77,30.9c-.22-.37-.58-.62-1-.7-.42-.08-.85,.01-1.2,.27l-.08,.06s-.04,.03-.05,.04l-19.15,12.69c-.67,.44-.88,1.32-.48,2.02,3.02,5.28,4.73,11.29,4.94,17.4,.67,19.01-12.95,35.62-31.69,38.64-.76,.12-1.3,.79-1.27,1.55l.82,23.31c.01,.42,.21,.82,.53,1.1,.28,.24,.63,.37,.99,.37,.06,0,.12,0,.17-.01,11.81-1.36,23-5.98,32.36-13.36,9.61-7.58,16.81-17.72,20.83-29.35,6.22-18,4.14-37.69-5.71-54.02Zm6.02,37.72l-20.09-1.68c.1-1.44,.13-2.9,.08-4.38-.02-.61-.06-1.22-.11-1.83l20.12-1.42c.24,3.09,.24,6.2,0,9.3Zm-4.1,17.8l-18.71-7.51c.76-1.92,1.37-3.91,1.83-5.95l19.64,4.56c-.49,2.15-1.1,4.29-1.83,6.4-.29,.84-.6,1.67-.93,2.5Zm-24.81,3.04c1.3-1.62,2.47-3.35,3.51-5.15l17.39,10.18c-1.57,2.7-3.34,5.27-5.28,7.68l-15.62-12.7Zm24.82-47.84c1.14,2.89,2.06,5.85,2.75,8.86l-19.69,4.36c-.46-2.02-1.08-4-1.84-5.92l18.79-7.3Zm-44.88,61.45c2.03-.61,3.98-1.37,5.85-2.27l8.64,18.17c-2.8,1.35-5.7,2.49-8.69,3.4l-5.79-19.3Zm22.25,11.43l-11.18-16.71c1.74-1.18,3.37-2.49,4.9-3.92l13.58,14.84c-2.28,2.11-4.72,4.05-7.3,5.79Z"/><path class="cls-1" d="M11.69,30.14l20.74,10.94c.22,.12,.47,.18,.71,.18,.45,0,.9-.2,1.19-.58,6.89-8.77,17.23-14.02,28.35-14.42,10.81-.38,21.27,3.9,28.72,11.75,.51,.53,1.32,.63,1.94,.22l19.53-12.94c.36-.24,.6-.62,.66-1.04,.06-.43-.06-.86-.33-1.19-7.44-8.97-17.22-15.73-28.29-19.55C57.67-5.92,27.34,4.13,11.14,27.94c-.24,.36-.32,.8-.22,1.22,.1,.42,.38,.77,.76,.98ZM83.92,6.37c10,3.46,18.91,9.44,25.85,17.34l-17.06,11.3c-7.98-7.9-18.89-12.18-30.14-11.79-11.6,.41-22.4,5.71-29.83,14.59L14.62,28.26C30.28,6.58,58.51-2.42,83.92,6.37Z"/><path class="cls-1" d="M61.02,101.67c-19.13-1.5-34.06-17.11-34.74-36.33-.21-5.9,.91-11.6,3.34-16.94,.33-.73,.04-1.59-.67-1.97l-20.53-10.83c-.36-.19-.79-.23-1.18-.1s-.71,.41-.89,.78c-1.06,2.22-2,4.51-2.79,6.8C-2.04,59.26-1,76.63,6.48,92.01c7.47,15.38,20.49,26.92,36.64,32.51,6.01,2.08,12.25,3.25,18.56,3.48h.06c.4,0,.79-.16,1.07-.44,.3-.3,.46-.71,.44-1.13l-.82-23.3c-.03-.77-.63-1.4-1.4-1.46Z"/><path class="cls-1" d="M93.96,63.37c-.58-16.52-14.49-29.48-30.99-28.89-16.51,.58-29.46,14.5-28.87,31.02,.57,16.16,13.89,28.91,29.92,28.91,.36,0,.71,0,1.07-.02,16.51-.58,29.46-14.5,28.87-31.02Zm-28.97,28.3c-.33,.01-.65,.02-.98,.02-14.58,0-26.69-11.6-27.21-26.29-.53-15.02,11.25-27.67,26.26-28.21,7.27-.25,14.21,2.33,19.53,7.3,5.32,4.96,8.4,11.7,8.66,18.98,.53,15.02-11.25,27.67-26.26,28.21Z"/></svg>