<?xml version="1.0" encoding="UTF-8"?><svg id="Layer_1" xmlns="http://www.w3.org/2000/svg" viewBox="0 0 512 512"><defs><style>.cls-1{fill:#d0da55;}</style></defs><path class="cls-1" d="M475.07,123.61c-.88-1.46-2.34-2.49-4.01-2.82-1.67-.33-3.41,.06-4.78,1.07l-.32,.24c-.07,.06-.14,.11-.21,.16l-76.61,50.74c-2.67,1.77-3.5,5.3-1.92,8.07,12.07,21.1,18.9,45.17,19.77,69.61,2.68,76.03-51.81,142.48-126.76,154.54-3.02,.49-5.21,3.15-5.1,6.21l3.3,93.25c.06,1.69,.82,3.28,2.11,4.39,1.11,.95,2.51,1.47,3.95,1.47,.23,0,.46-.01,.69-.04,47.24-5.45,91.99-23.92,129.42-53.43,38.45-30.3,67.26-70.9,83.32-117.4,24.87-72.01,16.54-150.76-22.85-216.07Zm24.08,150.88l-80.37-6.71c.41-5.77,.53-11.62,.32-17.52-.09-2.44-.24-4.87-.44-7.3l80.48-5.66c.95,12.35,.96,24.79,.01,37.2Zm-16.4,71.21l-74.83-30.04c3.02-7.68,5.47-15.63,7.31-23.79l78.55,18.24c-1.96,8.61-4.4,17.16-7.31,25.6-1.16,3.37-2.41,6.69-3.71,9.99Zm-99.23,12.18c5.18-6.5,9.87-13.39,14.02-20.62l69.57,40.71c-6.27,10.81-13.34,21.07-21.13,30.72l-62.47-50.81Zm99.29-191.36c4.57,11.57,8.25,23.41,10.99,35.43l-78.77,17.44c-1.85-8.07-4.32-15.98-7.36-23.66l75.14-29.21Zm-179.52,245.81c8.1-2.44,15.91-5.49,23.4-9.09l34.55,72.69c-11.18,5.39-22.8,9.95-34.78,13.61l-23.17-77.21Zm89.02,45.7l-44.71-66.85c6.94-4.72,13.49-9.97,19.59-15.66l54.31,59.34c-9.13,8.44-18.89,16.19-29.19,23.17Z"/><path class="cls-1" d="M46.75,120.55l82.95,43.74c.9,.47,1.86,.7,2.82,.7,1.81,0,3.59-.81,4.77-2.32,27.57-35.07,68.9-56.09,113.4-57.67,43.22-1.53,85.09,15.61,114.9,47.02,2.03,2.13,5.29,2.51,7.74,.88l78.12-51.74c1.44-.95,2.4-2.47,2.65-4.17,.25-1.71-.23-3.44-1.33-4.76-29.77-35.87-68.9-62.91-113.15-78.22C230.69-23.66,109.36,16.54,44.56,111.76c-.97,1.43-1.29,3.2-.87,4.88,.42,1.68,1.53,3.1,3.06,3.9ZM335.67,25.48c40.02,13.84,75.63,37.75,103.39,69.35l-68.23,45.19c-31.93-31.61-75.57-48.73-120.55-47.14-46.39,1.64-89.59,22.84-119.31,58.36L58.49,113.02C121.1,26.34,234.05-9.66,335.67,25.48Z"/><path class="cls-1" d="M244.08,406.69c-76.51-5.98-136.26-68.45-138.98-145.31-.84-23.6,3.66-46.39,13.36-67.76,1.33-2.93,.15-6.38-2.69-7.88l-82.13-43.31c-1.46-.77-3.17-.91-4.73-.39s-2.85,1.65-3.56,3.14c-4.25,8.89-8.02,18.05-11.18,27.21C-8.16,237.05-3.99,306.52,25.91,368.04c29.9,61.51,81.94,107.69,146.55,130.03,24.03,8.31,49,13,74.23,13.93,.08,0,.15,0,.22,0,1.6,0,3.15-.64,4.28-1.77,1.19-1.19,1.84-2.82,1.78-4.51l-3.3-93.19c-.11-3.08-2.51-5.59-5.59-5.83Z"/><path class="cls-1" d="M375.84,253.47c-2.34-66.07-57.96-117.93-123.98-115.58-66.02,2.34-117.84,57.99-115.5,124.06,2.29,64.63,55.56,115.65,119.69,115.65,1.42,0,2.86-.02,4.29-.08,66.02-2.34,117.84-57.99,115.5-124.06Zm-115.88,113.21c-1.31,.05-2.61,.07-3.9,.07-58.32,0-106.77-46.4-108.85-105.18-2.13-60.08,44.99-110.7,105.04-112.83,29.09-1.02,56.84,9.34,78.13,29.19,21.3,19.85,33.59,46.81,34.62,75.92,2.13,60.08-44.99,110.7-105.04,112.83Z"/></svg>