<?xml version="1.0" encoding="utf-8"?>
<!-- Generator: Adobe Illustrator 26.3.1, SVG Export Plug-In . SVG Version: 6.00 Build 0)  -->
<svg version="1.0" id="Layer_1" xmlns="http://www.w3.org/2000/svg" xmlns:xlink="http://www.w3.org/1999/xlink" x="0px" y="0px"
	 viewBox="0 0 2206.8 421.9" enable-background="new 0 0 2206.8 421.9" xml:space="preserve">
<g>
	<path fill="#D0DA55" d="M602.9,223.5c0-63.5,62.5-112.8,183.1-112.8c128.9,0,169.7,51,170,86.8c0,0.7,0,3-0.3,4.9h-48v-1.3
		c0-21.4-31.6-50.3-119.4-50.3c-87.8,0-131.5,30.6-131.5,72.7c0,37.8,34.5,72,132.8,72c82.9,0,120.3-23.7,120.3-49.6v-2h48
		c0.3,2,0.3,4.3,0.3,4.6c0,41.1-47,87.1-170.3,87.1C650.6,335.6,602.9,279.7,602.9,223.5z"/>
	<path fill="#D0DA55" d="M1022.1,222.2c0-68.1,74.6-111.5,194.3-111.5c119.7,0,194,43.4,194,111.5c0,70.7-72,113.4-194,113.4
		C1094.5,335.6,1022.1,292.9,1022.1,222.2z M1356.5,222.2c0-43.1-53.6-71.3-140.1-71.3c-86.5,0-140.4,28.3-140.4,71.3
		c0,46,51.6,73.3,140.4,73.3C1305.2,295.5,1356.5,268.2,1356.5,222.2z"/>
	<path fill="#D0DA55" d="M1483.1,115h74l231.8,157.2h0.7V115h51v216.3h-52.3L1534.4,159h-0.3v172.3h-51V115z"/>
	<path fill="#D0DA55" d="M1922.1,115h280.5v40.1h-227.2v51.6h180.5v31.6h-180.5v52.9h231.5v40.1h-284.7V115z"/>
</g>
<g>
	<path fill="#D0DA55" d="M391.7,101.9c-0.7-1.2-1.9-2-3.3-2.3c-1.4-0.3-2.8,0-3.9,0.9l-0.3,0.2c-0.1,0-0.1,0.1-0.2,0.1l-63.2,41.8
		c-2.2,1.5-2.9,4.4-1.6,6.7c9.9,17.4,15.6,37.2,16.3,57.4c2.2,62.7-42.7,117.4-104.5,127.3c-2.5,0.4-4.3,2.6-4.2,5.1l2.7,76.8
		c0,1.4,0.7,2.7,1.7,3.6c0.9,0.8,2.1,1.2,3.3,1.2c0.2,0,0.4,0,0.6,0c39-4.5,75.9-19.7,106.7-44c31.7-25,55.5-58.4,68.7-96.7
		C431.1,220.6,424.2,155.7,391.7,101.9z M411.6,226.2l-66.3-5.5c0.3-4.8,0.4-9.6,0.3-14.4c-0.1-2-0.2-4-0.4-6l66.4-4.7
		C412.3,205.7,412.4,216,411.6,226.2z M398,284.9l-61.7-24.8c2.5-6.3,4.5-12.9,6-19.6l64.8,15c-1.6,7.1-3.6,14.1-6,21.1
		C400.1,279.4,399.1,282.2,398,284.9z M316.2,294.9c4.3-5.4,8.1-11,11.6-17l57.4,33.5c-5.2,8.9-11,17.4-17.4,25.3L316.2,294.9z
		 M398.1,137.2c3.8,9.5,6.8,19.3,9.1,29.2l-65,14.4c-1.5-6.6-3.6-13.2-6.1-19.5L398.1,137.2z M250.1,339.8c6.7-2,13.1-4.5,19.3-7.5
		l28.5,59.9c-9.2,4.4-18.8,8.2-28.7,11.2L250.1,339.8z M323.5,377.4l-36.9-55.1c5.7-3.9,11.1-8.2,16.2-12.9l44.8,48.9
		C340,365.3,332,371.7,323.5,377.4z"/>
	<path fill="#D0DA55" d="M38.5,99.3l68.4,36c0.7,0.4,1.5,0.6,2.3,0.6c1.5,0,3-0.7,3.9-1.9c22.7-28.9,56.8-46.2,93.5-47.5
		c35.6-1.3,70.2,12.9,94.7,38.7c1.7,1.8,4.4,2.1,6.4,0.7l64.4-42.6c1.2-0.8,2-2,2.2-3.4c0.2-1.4-0.2-2.8-1.1-3.9
		c-24.5-29.6-56.8-51.8-93.3-64.5c-89.8-31-189.9,2.1-243.3,80.6c-0.8,1.2-1.1,2.6-0.7,4C36.4,97.5,37.3,98.7,38.5,99.3z M276.8,21
		c33,11.4,62.4,31.1,85.2,57.1l-56.3,37.2c-26.3-26-62.3-40.2-99.4-38.8c-38.2,1.4-73.9,18.8-98.4,48.1L48.2,93.1
		C99.9,21.7,193-8,276.8,21z"/>
	<path fill="#D0DA55" d="M201.3,335.1c-63.1-4.9-112.4-56.4-114.6-119.7c-0.7-19.4,3-38.2,11-55.8c1.1-2.4,0.1-5.3-2.2-6.5
		l-67.7-35.7c-1.2-0.6-2.6-0.8-3.9-0.3s-2.4,1.4-2.9,2.6c-3.5,7.3-6.6,14.9-9.2,22.4c-18.4,53.3-15,110.5,9.7,161.2
		S88.9,392,142.2,410.4c19.8,6.8,40.4,10.7,61.2,11.5c0.1,0,0.1,0,0.2,0c1.3,0,2.6-0.5,3.5-1.5c1-1,1.5-2.3,1.5-3.7l-2.7-76.8
		C205.8,337.4,203.8,335.3,201.3,335.1z"/>
	<path fill="#D0DA55" d="M309.9,208.9c-1.9-54.4-47.8-97.2-102.2-95.2c-54.4,1.9-97.2,47.8-95.2,102.2c1.9,53.3,45.8,95.3,98.7,95.3
		c1.2,0,2.4,0,3.5-0.1C269.1,309.2,311.8,263.3,309.9,208.9z M214.3,302.1c-1.1,0-2.1,0.1-3.2,0.1c-48.1,0-88-38.2-89.8-86.7
		c-1.8-49.5,37.1-91.2,86.6-93c24-0.8,46.9,7.7,64.4,24.1c17.6,16.4,27.7,38.6,28.5,62.6C302.7,258.7,263.9,300.4,214.3,302.1z"/>
</g>
</svg>
