<?xml version="1.0" encoding="utf-8"?>
<!-- Generator: Adobe Illustrator 26.3.1, SVG Export Plug-In . SVG Version: 6.00 Build 0)  -->
<svg version="1.0" id="Layer_1" xmlns="http://www.w3.org/2000/svg" xmlns:xlink="http://www.w3.org/1999/xlink" x="0px" y="0px"
	 viewBox="0 0 1200 1200" enable-background="new 0 0 1200 1200" xml:space="preserve">
<g>
	<path fill="#D0DA55" d="M1113.4,289.7c-2.1-3.4-5.5-5.8-9.4-6.6c-3.9-0.8-8,0.1-11.2,2.5l-0.8,0.6c-0.2,0.1-0.3,0.3-0.5,0.4
		L912,405.5c-6.2,4.1-8.2,12.4-4.5,18.9c28.3,49.5,44.3,105.9,46.3,163.1c6.3,178.2-121.4,333.9-297.1,362.2
		c-7.1,1.1-12.2,7.4-11.9,14.5l7.7,218.6c0.1,4,1.9,7.7,4.9,10.3c2.6,2.2,5.9,3.4,9.3,3.4c0.5,0,1.1,0,1.6-0.1
		c110.7-12.8,215.6-56.1,303.3-125.2c90.1-71,157.6-166.2,195.3-275.1C1225.3,627.4,1205.8,442.8,1113.4,289.7z M1169.9,643.3
		l-188.4-15.7c1-13.5,1.2-27.2,0.8-41.1c-0.2-5.7-0.6-11.4-1-17.1l188.6-13.3C1172.1,585.1,1172.1,614.3,1169.9,643.3z
		 M1131.4,810.2L956,739.8c7.1-18,12.8-36.6,17.1-55.8l184.1,42.7c-4.6,20.2-10.3,40.2-17.1,60
		C1137.4,794.7,1134.5,802.5,1131.4,810.2z M898.9,838.8c12.1-15.2,23.1-31.4,32.9-48.3l163.1,95.4c-14.7,25.3-31.3,49.4-49.5,72
		L898.9,838.8z M1131.6,390.3c10.7,27.1,19.3,54.9,25.8,83l-184.6,40.9c-4.3-18.9-10.1-37.5-17.2-55.5L1131.6,390.3z M710.8,966.4
		c19-5.7,37.3-12.9,54.8-21.3l81,170.4c-26.2,12.6-53.4,23.3-81.5,31.9L710.8,966.4z M919.5,1073.5L814.7,916.9
		c16.3-11.1,31.6-23.4,45.9-36.7l127.3,139.1C966.5,1039,943.6,1057.2,919.5,1073.5z"/>
	<path fill="#D0DA55" d="M109.6,282.5L304,385.1c2.1,1.1,4.4,1.6,6.6,1.6c4.2,0,8.4-1.9,11.2-5.4c64.6-82.2,161.5-131.5,265.8-135.2
		c101.3-3.6,199.4,36.6,269.3,110.2c4.7,5,12.4,5.9,18.2,2.1l183.1-121.3c3.4-2.2,5.6-5.8,6.2-9.8c0.6-4-0.5-8.1-3.1-11.2
		C991.4,132.1,899.7,68.7,796,32.8c-255.3-88.3-539.7,5.9-691.6,229.1c-2.3,3.3-3,7.5-2,11.4C103.4,277.3,106,280.6,109.6,282.5z
		 M786.7,59.7C880.5,92.1,964,148.2,1029,222.3L869.1,328.2C794.3,254.1,692,214,586.6,217.7c-108.7,3.9-210,53.5-279.6,136.8
		l-169.8-89.6C283.8,61.7,548.6-22.6,786.7,59.7z"/>
	<path fill="#D0DA55" d="M572.1,953.2c-179.3-14-319.4-160.4-325.7-340.6c-2-55.3,8.6-108.7,31.3-158.8c3.1-6.9,0.3-15-6.3-18.5
		L78.9,333.9c-3.4-1.8-7.4-2.1-11.1-0.9c-3.7,1.2-6.7,3.9-8.4,7.4c-10,20.8-18.8,42.3-26.2,63.8C-19.1,555.6-9.4,718.4,60.7,862.6
		s192.1,252.4,343.5,304.8c56.3,19.5,114.9,30.5,174,32.6c0.2,0,0.3,0,0.5,0c3.8,0,7.4-1.5,10-4.2c2.8-2.8,4.3-6.6,4.2-10.6
		l-7.7-218.4C584.9,959.6,579.3,953.8,572.1,953.2z"/>
	<path fill="#D0DA55" d="M880.9,594.1C875.4,439.2,745,317.7,590.3,323.2C435.6,328.7,314.1,459.1,319.6,614
		C325,765.4,449.8,885,600.1,885c3.3,0,6.7-0.1,10.1-0.2C764.9,879.3,886.4,748.9,880.9,594.1z M609.3,859.4
		c-3.1,0.1-6.1,0.2-9.2,0.2c-136.7,0-250.2-108.8-255.1-246.5c-5-140.8,105.5-259.4,246.2-264.4c68.2-2.4,133.2,21.9,183.1,68.4
		c49.9,46.5,78.7,109.7,81.1,177.9C860.4,735.8,750,854.4,609.3,859.4z"/>
</g>
</svg>
