<?xml version="1.0" encoding="UTF-8"?><svg id="Layer_1" xmlns="http://www.w3.org/2000/svg" viewBox="0 0 128.79 128.81"><defs><style>.cls-1{stroke-width:.79px;}.cls-1,.cls-2{fill:#d3f85a;stroke:#d3f85a;stroke-linecap:round;stroke-linejoin:round;}.cls-2{stroke-width:.79px;}</style></defs><path class="cls-2" d="M119.19,31.31c-.22-.36-.58-.62-1-.7s-.86,0-1.2,.26l-.08,.06-.06,.04-19.16,12.68c-.66,.44-.88,1.32-.48,2.02,3.02,5.28,4.72,11.3,4.94,17.4,.68,19-12.96,35.63-31.69,38.65-.76,.12-1.3,.78-1.28,1.56l.82,23.33c0,.42,.2,.82,.52,1.1,.28,.24,.62,.36,.98,.36h.18c11.8-1.36,23.01-5.98,32.37-13.36,9.62-7.58,16.82-17.72,20.83-29.35,6.22-18,4.14-37.71-5.72-54.03l.04-.02Zm6.02,37.73l-20.1-1.68c.1-1.44,.14-2.9,.08-4.38-.02-.6-.06-1.22-.1-1.82l20.12-1.42c.24,3.08,.24,6.2,0,9.3Zm-4.1,17.8l-18.7-7.5c.76-1.92,1.36-3.9,1.82-5.94l19.64,4.56c-.5,2.16-1.1,4.28-1.82,6.4-.3,.84-.6,1.68-.92,2.5l-.02-.02Zm-24.81,3.04c1.3-1.62,2.46-3.34,3.5-5.16l17.4,10.18c-1.56,2.7-3.34,5.26-5.28,7.68l-15.62-12.7Zm24.83-47.85c1.14,2.9,2.06,5.86,2.74,8.86l-19.7,4.36c-.46-2.02-1.08-4-1.84-5.92l18.78-7.3h.02Zm-44.89,61.48c2.02-.62,3.98-1.38,5.84-2.28l8.64,18.18c-2.8,1.34-5.7,2.48-8.7,3.4l-5.8-19.3h.02Zm22.27,11.42l-11.18-16.72c1.74-1.18,3.38-2.5,4.9-3.92l13.58,14.84c-2.28,2.12-4.72,4.04-7.3,5.8Z"/><path class="cls-2" d="M12.08,30.55l20.75,10.94c.22,.12,.46,.18,.7,.18,.46,0,.9-.2,1.2-.58,6.9-8.76,17.22-14.02,28.37-14.42,10.8-.38,21.29,3.9,28.73,11.76,.5,.54,1.32,.62,1.94,.22l19.54-12.94c.36-.24,.6-.62,.66-1.04,.06-.42-.06-.86-.34-1.2-7.44-8.96-17.22-15.72-28.29-19.56C58.1-5.52,27.75,4.54,11.54,28.35c-.24,.36-.32,.8-.22,1.22,.1,.42,.38,.78,.76,.98ZM84.34,6.76c10,3.46,18.9,9.44,25.85,17.34l-17.06,11.3c-7.98-7.9-18.9-12.18-30.15-11.78-11.6,.42-22.41,5.7-29.83,14.58L15.02,28.67C30.69,6.98,58.94-2.02,84.34,6.76Z"/><path class="cls-2" d="M61.44,102.1c-19.12-1.5-34.07-17.12-34.75-36.33-.2-5.9,.92-11.6,3.34-16.94,.34-.74,.04-1.6-.68-1.96l-20.55-10.82c-.36-.2-.8-.22-1.18-.1s-.72,.42-.9,.78c-1.06,2.22-2,4.52-2.8,6.8C-1.64,59.67-.6,77.06,6.88,92.42c7.48,15.38,20.48,26.93,36.65,32.51,6,2.08,12.26,3.24,18.56,3.48h.06c.4,0,.78-.16,1.08-.44,.3-.3,.46-.7,.44-1.12l-.82-23.31c-.02-.78-.62-1.4-1.4-1.46l-.02,.02Z"/><path class="cls-1" d="M94.34,63.43c-.58-16.5-14.46-29.44-30.96-28.86-16.48,.58-29.42,14.48-28.84,30.98,.58,16.14,13.86,28.88,29.88,28.88h1.08c16.48-.58,29.42-14.48,28.84-30.98v-.02Zm-28.94,28.26h-.98c-14.56,0-26.66-11.58-27.18-26.27-.54-15,11.23-27.64,26.23-28.16,7.27-.26,14.18,2.34,19.51,7.29,5.31,4.95,8.39,11.68,8.65,18.96,.54,15-11.23,27.64-26.23,28.16v.02Z"/></svg>