<?xml version="1.0" encoding="UTF-8"?><svg id="Layer_1" xmlns="http://www.w3.org/2000/svg" viewBox="0 0 515.17 515.22"><defs><style>.cls-1{stroke-width:3.17px;}.cls-1,.cls-2{fill:#fff;stroke:#fff;stroke-linecap:round;stroke-linejoin:round;}.cls-2{stroke-width:3.17px;}</style></defs><path class="cls-1" d="M476.76,125.22c-.88-1.44-2.32-2.48-4-2.8-1.68-.32-3.44,0-4.8,1.04l-.32,.24-.24,.16-76.66,50.73c-2.64,1.76-3.52,5.28-1.92,8.08,12.08,21.13,18.88,45.21,19.76,69.62,2.72,76.02-51.85,142.51-126.75,154.6-3.04,.48-5.2,3.12-5.12,6.24l3.28,93.3c0,1.68,.8,3.28,2.08,4.4,1.12,.96,2.48,1.44,3.92,1.44h.72c47.21-5.44,92.02-23.93,129.47-53.45,38.49-30.33,67.3-70.9,83.3-117.39,24.89-72.02,16.56-150.84-22.89-216.13l.16-.08Zm24.09,150.92l-80.42-6.72c.4-5.76,.56-11.6,.32-17.52-.08-2.4-.24-4.88-.4-7.28l80.5-5.68c.96,12.32,.96,24.81,0,37.21Zm-16.4,71.22l-74.82-30.01c3.04-7.68,5.44-15.6,7.28-23.77l78.58,18.24c-2,8.64-4.4,17.12-7.28,25.61-1.2,3.36-2.4,6.72-3.68,10l-.08-.08Zm-99.22,12.16c5.2-6.48,9.84-13.36,14-20.65l69.62,40.73c-6.24,10.8-13.36,21.05-21.13,30.73l-62.5-50.81Zm99.3-191.41c4.56,11.6,8.24,23.45,10.96,35.45l-78.82,17.44c-1.84-8.08-4.32-16-7.36-23.69l75.14-29.21h.08Zm-179.56,245.9c8.08-2.48,15.92-5.52,23.37-9.12l34.57,72.74c-11.2,5.36-22.81,9.92-34.81,13.6l-23.21-77.22h.08Zm89.06,45.69l-44.73-66.9c6.96-4.72,13.52-10,19.6-15.68l54.33,59.37c-9.12,8.48-18.88,16.16-29.21,23.21Z"/><path class="cls-1" d="M48.34,122.18l82.98,43.77c.88,.48,1.84,.72,2.8,.72,1.84,0,3.6-.8,4.8-2.32,27.61-35.05,68.9-56.09,113.47-57.69,43.21-1.52,85.14,15.6,114.91,47.05,2,2.16,5.28,2.48,7.76,.88l78.18-51.77c1.44-.96,2.4-2.48,2.64-4.16,.24-1.68-.24-3.44-1.36-4.8-29.77-35.85-68.9-62.9-113.15-78.26C232.38-22.09,110.99,18.16,46.18,113.38c-.96,1.44-1.28,3.2-.88,4.88,.4,1.68,1.52,3.12,3.04,3.92ZM337.37,27.04c40.01,13.84,75.62,37.77,103.39,69.38l-68.26,45.21c-31.93-31.61-75.62-48.73-120.59-47.13-46.41,1.68-89.62,22.81-119.31,58.33L60.1,114.66C122.75,27.92,235.74-8.09,337.37,27.04Z"/><path class="cls-1" d="M245.74,408.41c-76.5-6-136.27-68.5-138.99-145.32-.8-23.61,3.68-46.41,13.36-67.78,1.36-2.96,.16-6.4-2.72-7.84l-82.18-43.29c-1.44-.8-3.2-.88-4.72-.4-1.52,.48-2.88,1.68-3.6,3.12-4.24,8.88-8,18.08-11.2,27.21C-6.56,238.69-2.4,308.23,27.53,369.68c29.93,61.54,81.94,107.71,146.6,130.03,24.01,8.32,49.05,12.96,74.26,13.92h.24c1.6,0,3.12-.64,4.32-1.76,1.2-1.2,1.84-2.8,1.76-4.48l-3.28-93.22c-.08-3.12-2.48-5.6-5.6-5.84l-.08,.08Z"/><path class="cls-2" d="M377.36,253.7c-2.32-65.99-57.84-117.77-123.84-115.45-65.91,2.32-117.69,57.92-115.37,123.92,2.32,64.56,55.45,115.53,119.52,115.53h4.31c65.91-2.32,117.69-57.92,115.37-123.92v-.08Zm-115.77,113.05h-3.91c-58.24,0-106.66-46.34-108.74-105.06-2.16-60,44.9-110.57,104.9-112.65,29.08-1.04,56.73,9.35,78.06,29.16,21.25,19.81,33.56,46.74,34.59,75.82,2.16,60-44.9,110.57-104.9,112.65v.08Z"/></svg>